<?xml version="1.0" encoding="UTF-8" standalone="no"?>
<svg
   xmlns:dc="http://purl.org/dc/elements/1.1/"
   xmlns:cc="http://creativecommons.org/ns#"
   xmlns:rdf="http://www.w3.org/1999/02/22-rdf-syntax-ns#"
   xmlns:svg="http://www.w3.org/2000/svg"
   xmlns="http://www.w3.org/2000/svg"
   xmlns:sodipodi="http://sodipodi.sourceforge.net/DTD/sodipodi-0.dtd"
   xmlns:inkscape="http://www.inkscape.org/namespaces/inkscape"
   sodipodi:docname="sightingdb-logo2.svg"
   inkscape:version="1.0beta2 (unknown)"
   id="svg1538"
   version="1.1"
   viewBox="0 0 100 99.999997"
   height="10cm"
   width="10cm">
  <defs
     id="defs1532">
    <inkscape:path-effect
       message="Use fill-rule evenodd on &lt;b&gt;fill and stroke&lt;/b&gt; dialog if no flatten result after convert clip to paths."
       hide_clip="false"
       flatten="false"
       inverse="true"
       lpeversion="1"
       is_visible="true"
       id="path-effect1622"
       effect="powerclip" />
    <inkscape:path-effect
       message="Use fill-rule evenodd on &lt;b&gt;fill and stroke&lt;/b&gt; dialog if no flatten result after convert clip to paths."
       hide_clip="false"
       flatten="false"
       inverse="true"
       lpeversion="1"
       is_visible="true"
       id="path-effect1606"
       effect="powerclip" />
    <clipPath
       clipPathUnits="userSpaceOnUse"
       id="clipPath2140">
      <rect
         style="opacity:1;fill:url(#linearGradient2144);fill-opacity:1;fill-rule:nonzero;stroke:none;stroke-width:0.821;stroke-linecap:round;stroke-linejoin:round;stroke-miterlimit:4;stroke-dasharray:none;stroke-dashoffset:0;stroke-opacity:1;paint-order:fill markers stroke"
         id="rect2142"
         width="2033.3866"
         height="1214.4728"
         x="1258.639"
         y="-555.92383"
         inkscape:export-xdpi="300"
         inkscape:export-ydpi="300" />
    </clipPath>
    <clipPath
       clipPathUnits="userSpaceOnUse"
       id="clipPath2146">
      <rect
         style="opacity:1;fill:url(#linearGradient2150);fill-opacity:1;fill-rule:nonzero;stroke:none;stroke-width:0.821;stroke-linecap:round;stroke-linejoin:round;stroke-miterlimit:4;stroke-dasharray:none;stroke-dashoffset:0;stroke-opacity:1;paint-order:fill markers stroke"
         id="rect2148"
         width="2033.3866"
         height="1214.4728"
         x="1258.639"
         y="-555.92383"
         inkscape:export-xdpi="300"
         inkscape:export-ydpi="300" />
    </clipPath>
    <clipPath
       id="clipPath1648"
       clipPathUnits="userSpaceOnUse">
      <rect
         ry="0.0049699186"
         y="-36.36726"
         x="5.7249856"
         height="180.49054"
         width="151.05939"
         id="rect1650"
         style="fill:#f4d7d7;stroke-width:0.43647" />
    </clipPath>
  </defs>
  <sodipodi:namedview
     inkscape:window-maximized="1"
     inkscape:window-y="18"
     inkscape:window-x="0"
     inkscape:window-height="1041"
     inkscape:window-width="1916"
     units="cm"
     showgrid="false"
     inkscape:document-rotation="0"
     inkscape:current-layer="layer1"
     inkscape:document-units="mm"
     inkscape:cy="188.97638"
     inkscape:cx="188.97638"
     inkscape:zoom="2.2489583"
     inkscape:pageshadow="2"
     inkscape:pageopacity="0"
     borderopacity="1.0"
     bordercolor="#666666"
     pagecolor="#010061"
     id="base" />
  <metadata
     id="metadata1535">
    <rdf:RDF>
      <cc:Work
         rdf:about="">
        <dc:format>image/svg+xml</dc:format>
        <dc:type
           rdf:resource="http://purl.org/dc/dcmitype/StillImage" />
        <dc:title></dc:title>
      </cc:Work>
    </rdf:RDF>
  </metadata>
  <g
     id="layer1"
     inkscape:groupmode="layer"
     inkscape:label="Layer 1">
    <g
       clip-path="url(#clipPath1648)"
       transform="matrix(0.66224737,0,0,0.55487535,-3.7704999,20.193184)"
       id="g1644">
      <path
         inkscape:export-ydpi="300"
         inkscape:export-xdpi="300"
         id="path1526"
         d="m 1568.6714,-352.7989 -36.3481,25.65789 -36.3487,32.07195 c 0,0 -23.52,38.48687 -27.7963,47.03949 -4.2763,8.55263 -19.2432,34.21083 -19.2432,34.21083 0,0 -38.4869,17.1049 -47.0395,17.1049 h -38.4871 l -25.6578,25.65787 -23.5195,17.10541 -55.592,28.82511 v 494.76671 l 1182.4002,-33.95401 337.8284,-55.59195 c 0,0 -130.4275,-79.11197 -138.9801,-79.11197 -8.5526,0 -40.625,-8.55266 -51.3157,-10.69082 -10.6908,-2.13815 -66.2828,0 -66.2828,0 l -38.4865,-8.55245 -23.5201,-38.48706 -21.3816,-8.55245 -47.039,10.69082 c 0,0 -32.0728,6.4146 -40.6254,6.4146 -8.5526,0 -36.3482,-10.69082 -36.3482,-10.69082 0,0 -21.382,-8.55267 -29.9346,-10.69082 -8.5526,-2.13816 -42.7628,-27.79624 -42.7628,-27.79624 l -21.3816,-42.762761 -57.7303,-17.105415 c 0,0 -36.3487,-23.519964 -47.0395,-38.4870568 -10.6908,-14.9670922 -55.592,-47.0389892 -55.592,-47.0389892 l -10.6908,-19.243786 -6.4146,-17.104899 -40.6249,-4.276741 -21.3816,29.934606 -17.1049,14.967045 -25.6579,8.55245 -19.2438,27.7962354 c 0,0 -17.1052,14.9670446 -25.6579,14.9670446 -8.5526,0 -38.4865,-10.6908198 -38.4865,-10.6908198 0,0 -34.2106,-34.2104412 -47.0395,-40.6249102 -12.8289,-6.414468 -44.9011,-55.592471 -44.9011,-55.592471 0,0 -10.6908,-34.210132 -14.9671,-42.762762 -4.2763,-8.55262 -14.9676,-40.62491 -14.9676,-40.62491 0,0 -6.4143,-17.10524 -19.2432,-25.65787 -12.8289,-8.55262 -34.2103,-57.73032 -34.2103,-57.73032 l -8.5525,-29.9341 -14.9675,-17.10542 -51.3158,-14.96702 -14.967,-17.10542 -8.5525,-12.8287 z"
         style="opacity:1;fill:#a8a8a8;fill-opacity:1;stroke:none;stroke-width:0.264583px;stroke-linecap:butt;stroke-linejoin:miter;stroke-opacity:1"
         inkscape:connector-curvature="0"
         clip-path="url(#clipPath2146)"
         transform="matrix(0.23681136,0,0,0.23681136,-339.00978,61.806988)" />
      <path
         sodipodi:nodetypes="csscccccssscscsccsssscsssssssccsc"
         inkscape:connector-curvature="0"
         id="path1528"
         d="m 1378.4895,-4.5542485 c 0,0 -33.2619,21.1666665 -15.119,-25.7023815 18.1429,-46.869046 60.4762,-55.940475 72.5714,-61.988093 12.0953,-6.047619 28.7262,-15.119047 36.2857,-21.166667 7.5596,-6.04762 16.631,-37.79762 16.631,-37.79762 l 9.0714,-12.09523 c 0,0 31.75,28.72619 34.7738,36.28571 3.0238,7.55952 33.262,37.797616 33.262,37.797616 v 21.166667 c 0,9.071427 -15.1191,12.095236 1.5118,27.214284 16.631,15.119048 21.1667,19.654762 42.3334,36.2857145 21.1666,16.6309525 21.1666,15.1190475 27.2143,25.7023805 6.0476,10.583332 3.0238,27.214286 21.1666,27.214286 18.1429,0 28.7262,-7.559524 28.7262,-7.559524 0,0 -12.0952,-22.678572 13.6072,-27.214286 25.7023,-4.5357139 30.2381,-9.0714281 36.2857,-10.5833328 6.0476,-1.5119048 13.6071,4.5357143 19.6548,9.0714288 6.0476,4.535713 9.0714,27.214284 39.3095,46.869047 30.2381,19.654761 69.5476,34.773809 78.619,36.285712 9.0714,1.511906 7.5595,7.559527 27.2143,-3.023809 19.6548,-10.583333 28.7262,-16.630952 37.7976,-10.583333 9.0714,6.047621 30.2381,33.261909 31.75,40.821429 1.5119,7.55953 3.0238,28.72619 21.1667,37.79762 18.1428,9.07143 27.2143,9.07143 39.3095,16.63095 12.0952,7.55953 21.1667,12.09524 36.2857,27.21429 15.1191,15.11904 36.2857,25.70238 43.8453,28.72619 7.5595,3.02381 34.7738,16.63095 48.3809,18.14285 13.6071,1.51191 12.0952,3.02381 25.7024,1.51191 13.6071,-1.51191 -4.5357,-24.19048 21.1667,-1.51191 25.7023,22.67857 28.7261,25.70239 33.2619,31.74999 4.5357,6.04764 48.3809,66.52382 48.3809,66.52382 0,0 -895.0476,-9.07143 -895.0476,-18.14285 0,-9.07142 -15.1191,-335.6428585 -15.1191,-335.6428585 z"
         style="fill:#a1a1a1;fill-opacity:1;stroke:none;stroke-width:0.264583px;stroke-linecap:butt;stroke-linejoin:miter;stroke-opacity:1"
         clip-path="url(#clipPath2140)"
         transform="matrix(0.23681136,0,0,0.23681136,-339.00978,61.806988)" />
    </g>
    <path
       d="M 79.983501,9.9029382 76.430228,8.1044682 76.165751,12.078169 74.924918,8.2939149 71.928074,10.916732 73.726544,7.363459 69.752844,7.0989821 73.537097,5.8581489 70.91428,2.861305 74.467553,4.6597749 74.73203,0.68607442 75.972863,4.4703282 78.969707,1.847511 77.171237,5.4007842 81.144938,5.665261 77.360684,6.9060943 Z"
       inkscape:randomized="0"
       inkscape:rounded="0"
       inkscape:flatsided="false"
       sodipodi:arg2="1.0529032"
       sodipodi:arg1="0.66020408"
       sodipodi:r2="1.9822969"
       sodipodi:r1="5.7409792"
       sodipodi:cy="6.3821216"
       sodipodi:cx="75.448891"
       sodipodi:sides="8"
       id="path1652"
       style="fill:#ffd42a;stroke-width:0.264583"
       sodipodi:type="star" />
    <path
       d="M 49.648621,9.1240701 49.0408,8.7072876 48.895126,9.4297371 48.760041,8.7052329 48.146185,9.1130748 48.562967,8.5052536 47.840518,8.3595795 48.565022,8.2244948 48.15718,7.6106387 48.765001,8.0274212 48.910676,7.3049717 49.04576,8.0294759 49.659616,7.621634 49.242834,8.2294552 49.965283,8.3751292 49.240779,8.510214 Z"
       inkscape:randomized="0"
       inkscape:rounded="0"
       inkscape:flatsided="false"
       sodipodi:arg2="1.1854154"
       sodipodi:arg1="0.79271635"
       sodipodi:r2="0.3668389"
       sodipodi:r1="1.0624112"
       sodipodi:cy="8.3673544"
       sodipodi:cx="48.902901"
       sodipodi:sides="8"
       id="path1654"
       style="fill:#ffd42a;stroke-width:0.264583"
       sodipodi:type="star" />
    <path
       sodipodi:type="star"
       style="fill:#ffd42a;stroke-width:0.264583"
       id="path1654-6"
       sodipodi:sides="8"
       sodipodi:cx="59.070948"
       sodipodi:cy="10.105485"
       sodipodi:r1="1.0624112"
       sodipodi:r2="0.36683893"
       sodipodi:arg1="0.79271635"
       sodipodi:arg2="1.1854154"
       inkscape:flatsided="false"
       inkscape:rounded="0"
       inkscape:randomized="0"
       d="m 59.81667,10.862201 -0.607821,-0.416783 -0.145674,0.72245 -0.135085,-0.724504 -0.613856,0.407841 0.416782,-0.607821 -0.722449,-0.145674 0.724504,-0.1350847 -0.407842,-0.613856 0.607821,0.4167824 0.145674,-0.7224495 0.135085,0.7245042 0.613856,-0.4078418 -0.416782,0.6078212 0.722449,0.1456742 -0.724504,0.135085 z" />
    <path
       sodipodi:type="star"
       style="fill:#ffd42a;stroke-width:0.264583"
       id="path1654-2"
       sodipodi:sides="8"
       sodipodi:cx="90.278377"
       sodipodi:cy="15.149899"
       sodipodi:r1="1.0624112"
       sodipodi:r2="0.36683893"
       sodipodi:arg1="0.79271635"
       sodipodi:arg2="1.1854154"
       inkscape:flatsided="false"
       inkscape:rounded="0"
       inkscape:randomized="0"
       d="m 91.024094,15.906614 -0.607821,-0.416782 -0.145674,0.722449 -0.135085,-0.724504 -0.613856,0.407842 0.416782,-0.607821 -0.722449,-0.145674 0.724504,-0.135085 -0.407842,-0.613856 0.607822,0.416782 0.145674,-0.722449 0.135084,0.724504 0.613856,-0.407842 -0.416782,0.607821 0.722449,0.145674 -0.724504,0.135085 z" />
    <path
       transform="matrix(0.47910017,0,0,0.52584516,42.591223,12.21646)"
       sodipodi:type="star"
       style="fill:#ffd42a;stroke-width:0.264583"
       id="path1654-9"
       sodipodi:sides="8"
       sodipodi:cx="81.764709"
       sodipodi:cy="25.764706"
       sodipodi:r1="1.0624112"
       sodipodi:r2="0.36683893"
       sodipodi:arg1="0.79271635"
       sodipodi:arg2="1.1854154"
       inkscape:flatsided="false"
       inkscape:rounded="0"
       inkscape:randomized="0"
       d="m 82.51043,26.521421 -0.607821,-0.416782 -0.145674,0.722449 -0.135085,-0.724504 -0.613856,0.407842 0.416782,-0.607821 -0.722449,-0.145674 0.724504,-0.135085 -0.407842,-0.613856 0.607821,0.416782 0.145674,-0.722449 0.135085,0.724504 0.613856,-0.407842 -0.416782,0.607821 0.722449,0.145675 -0.724504,0.135084 z" />
    <path
       sodipodi:type="star"
       style="fill:#ffd42a;stroke-width:0.264583"
       id="path1654-1"
       sodipodi:sides="8"
       sodipodi:cx="7.2200939"
       sodipodi:cy="4.4639025"
       sodipodi:r1="1.0624112"
       sodipodi:r2="0.36683893"
       sodipodi:arg1="0.79271635"
       sodipodi:arg2="1.1854154"
       inkscape:flatsided="false"
       inkscape:rounded="0"
       inkscape:randomized="0"
       d="M 7.9658141,5.2206182 7.3579929,4.8038357 7.2123189,5.5262852 7.0772341,4.801781 6.463378,5.2096229 6.8801605,4.6018017 6.157711,4.4561276 6.8822152,4.3210428 6.4743733,3.7071868 7.0821945,4.1239692 7.2278686,3.4015197 7.3629534,4.1260239 7.9768094,3.7181821 7.560027,4.3260033 8.2824765,4.4716773 7.5579723,4.6067621 Z" />
    <path
       sodipodi:type="star"
       style="fill:#ffd42a;stroke-width:0.264583"
       id="path1654-27"
       sodipodi:sides="8"
       sodipodi:cx="34.966877"
       sodipodi:cy="7.6706448"
       sodipodi:r1="1.0624112"
       sodipodi:r2="0.36683893"
       sodipodi:arg1="0.79271635"
       sodipodi:arg2="1.1854154"
       inkscape:flatsided="false"
       inkscape:rounded="0"
       inkscape:randomized="0"
       d="M 35.712597,8.4273605 35.104776,8.010578 34.959102,8.7330275 34.824017,8.0085233 34.210161,8.4163651 34.626944,7.808544 33.904494,7.6628699 34.628998,7.5277851 34.221157,6.9139291 34.828978,7.3307115 34.974652,6.608262 35.109737,7.3327662 35.723593,6.9249244 35.30681,7.5327455 36.02926,7.6784196 35.304756,7.8135044 Z" />
    <path
       sodipodi:type="star"
       style="fill:#ffd42a;stroke-width:0.264583"
       id="path1654-0"
       sodipodi:sides="8"
       sodipodi:cx="47.642354"
       sodipodi:cy="16.552928"
       sodipodi:r1="1.0624112"
       sodipodi:r2="0.36683893"
       sodipodi:arg1="0.79271635"
       sodipodi:arg2="1.1854154"
       inkscape:flatsided="false"
       inkscape:rounded="0"
       inkscape:randomized="0"
       d="m 48.388073,17.309645 -0.607821,-0.416783 -0.145674,0.72245 -0.135085,-0.724505 -0.613856,0.407842 0.416783,-0.607821 -0.72245,-0.145674 0.724504,-0.135085 -0.407841,-0.613856 0.607821,0.416783 0.145674,-0.72245 0.135085,0.724504 0.613856,-0.407841 -0.416783,0.607821 0.72245,0.145674 -0.724504,0.135085 z" />
    <path
       d="m 82.51043,26.521421 -0.607821,-0.416782 -0.145674,0.722449 -0.135085,-0.724504 -0.613856,0.407842 0.416782,-0.607821 -0.722449,-0.145674 0.724504,-0.135085 -0.407842,-0.613856 0.607821,0.416782 0.145674,-0.722449 0.135085,0.724504 0.613856,-0.407842 -0.416782,0.607821 0.722449,0.145675 -0.724504,0.135084 z"
       inkscape:randomized="0"
       inkscape:rounded="0"
       inkscape:flatsided="false"
       sodipodi:arg2="1.1854154"
       sodipodi:arg1="0.79271635"
       sodipodi:r2="0.36683893"
       sodipodi:r1="1.0624112"
       sodipodi:cy="25.764706"
       sodipodi:cx="81.764709"
       sodipodi:sides="8"
       id="path1654-9-6"
       style="fill:#ffd42a;stroke-width:0.264583"
       sodipodi:type="star"
       transform="matrix(0.47910017,0,0,0.52584517,22.826514,7.7458716)" />
    <path
       d="m 82.51043,26.521421 -0.607821,-0.416782 -0.145674,0.722449 -0.135085,-0.724504 -0.613856,0.407842 0.416782,-0.607821 -0.722449,-0.145674 0.724504,-0.135085 -0.407842,-0.613856 0.607821,0.416782 0.145674,-0.722449 0.135085,0.724504 0.613856,-0.407842 -0.416782,0.607821 0.722449,0.145675 -0.724504,0.135084 z"
       inkscape:randomized="0"
       inkscape:rounded="0"
       inkscape:flatsided="false"
       sodipodi:arg2="1.1854154"
       sodipodi:arg1="0.79271635"
       sodipodi:r2="0.36683893"
       sodipodi:r1="1.0624112"
       sodipodi:cy="25.764706"
       sodipodi:cx="81.764709"
       sodipodi:sides="8"
       id="path1654-9-0"
       style="fill:#ffd42a;stroke-width:0.264583"
       sodipodi:type="star"
       transform="matrix(0.47910017,0,0,0.52584517,32.944161,9.2752834)" />
    <path
       d="m 82.51043,26.521421 -0.607821,-0.416782 -0.145674,0.722449 -0.135085,-0.724504 -0.613856,0.407842 0.416782,-0.607821 -0.722449,-0.145674 0.724504,-0.135085 -0.407842,-0.613856 0.607821,0.416782 0.145674,-0.722449 0.135085,0.724504 0.613856,-0.407842 -0.416782,0.607821 0.722449,0.145675 -0.724504,0.135084 z"
       inkscape:randomized="0"
       inkscape:rounded="0"
       inkscape:flatsided="false"
       sodipodi:arg2="1.1854154"
       sodipodi:arg1="0.79271635"
       sodipodi:r2="0.36683893"
       sodipodi:r1="1.0624112"
       sodipodi:cy="25.764706"
       sodipodi:cx="81.764709"
       sodipodi:sides="8"
       id="path1654-9-62"
       style="fill:#ffd42a;stroke-width:0.264583"
       sodipodi:type="star"
       transform="matrix(0.47910017,0,0,0.52584517,28.355926,4.451754)" />
    <path
       d="m 82.51043,26.521421 -0.607821,-0.416782 -0.145674,0.722449 -0.135085,-0.724504 -0.613856,0.407842 0.416782,-0.607821 -0.722449,-0.145674 0.724504,-0.135085 -0.407842,-0.613856 0.607821,0.416782 0.145674,-0.722449 0.135085,0.724504 0.613856,-0.407842 -0.416782,0.607821 0.722449,0.145675 -0.724504,0.135084 z"
       inkscape:randomized="0"
       inkscape:rounded="0"
       inkscape:flatsided="false"
       sodipodi:arg2="1.1854154"
       sodipodi:arg1="0.79271635"
       sodipodi:r2="0.36683893"
       sodipodi:r1="1.0624112"
       sodipodi:cy="25.764706"
       sodipodi:cx="81.764709"
       sodipodi:sides="8"
       id="path1654-9-61"
       style="fill:#ffd42a;stroke-width:0.264583"
       sodipodi:type="star"
       transform="matrix(0.47910017,0,0,0.52584517,39.885337,4.8046951)" />
    <path
       d="m 82.51043,26.521421 -0.607821,-0.416782 -0.145674,0.722449 -0.135085,-0.724504 -0.613856,0.407842 0.416782,-0.607821 -0.722449,-0.145674 0.724504,-0.135085 -0.407842,-0.613856 0.607821,0.416782 0.145674,-0.722449 0.135085,0.724504 0.613856,-0.407842 -0.416782,0.607821 0.722449,0.145675 -0.724504,0.135084 z"
       inkscape:randomized="0"
       inkscape:rounded="0"
       inkscape:flatsided="false"
       sodipodi:arg2="1.1854154"
       sodipodi:arg1="0.79271635"
       sodipodi:r2="0.36683893"
       sodipodi:r1="1.0624112"
       sodipodi:cy="25.764706"
       sodipodi:cx="81.764709"
       sodipodi:sides="8"
       id="path1654-9-8"
       style="fill:#ffd42a;stroke-width:0.264583"
       sodipodi:type="star"
       transform="matrix(0.47910017,0,0,0.52584517,52.708867,-6.9600107)" />
    <path
       d="m 82.51043,26.521421 -0.607821,-0.416782 -0.145674,0.722449 -0.135085,-0.724504 -0.613856,0.407842 0.416782,-0.607821 -0.722449,-0.145674 0.724504,-0.135085 -0.407842,-0.613856 0.607821,0.416782 0.145674,-0.722449 0.135085,0.724504 0.613856,-0.407842 -0.416782,0.607821 0.722449,0.145675 -0.724504,0.135084 z"
       inkscape:randomized="0"
       inkscape:rounded="0"
       inkscape:flatsided="false"
       sodipodi:arg2="1.1854154"
       sodipodi:arg1="0.79271635"
       sodipodi:r2="0.36683893"
       sodipodi:r1="1.0624112"
       sodipodi:cy="25.764706"
       sodipodi:cx="81.764709"
       sodipodi:sides="8"
       id="path1654-9-7"
       style="fill:#ffd42a;stroke-width:0.264583"
       sodipodi:type="star"
       transform="matrix(0.47910017,0,0,0.52584517,56.944161,-8.9600107)" />
    <path
       transform="matrix(1.683365,0,0,1.9836996,-47.686322,-40.636169)"
       d="m 54.157486,23.580244 -0.607821,-0.416782 -0.145674,0.722449 -0.135085,-0.724504 -0.613856,0.407842 0.416783,-0.607821 -0.72245,-0.145675 0.724504,-0.135084 -0.407841,-0.613856 0.607821,0.416782 0.145674,-0.722449 0.135085,0.724504 0.613856,-0.407842 -0.416783,0.607821 0.72245,0.145674 -0.724504,0.135085 z"
       inkscape:randomized="0"
       inkscape:rounded="0"
       inkscape:flatsided="false"
       sodipodi:arg2="1.1854154"
       sodipodi:arg1="0.79271635"
       sodipodi:r2="0.36683896"
       sodipodi:r1="1.0624112"
       sodipodi:cy="22.823528"
       sodipodi:cx="53.411766"
       sodipodi:sides="8"
       id="path1654-0-9"
       style="fill:#ffd42a;stroke-width:0.264583"
       sodipodi:type="star" />
  </g>
</svg>
