<?xml version="1.0" encoding="UTF-8" standalone="no"?>
<svg
   xmlns:dc="http://purl.org/dc/elements/1.1/"
   xmlns:cc="http://creativecommons.org/ns#"
   xmlns:rdf="http://www.w3.org/1999/02/22-rdf-syntax-ns#"
   xmlns:svg="http://www.w3.org/2000/svg"
   xmlns="http://www.w3.org/2000/svg"
   xmlns:sodipodi="http://sodipodi.sourceforge.net/DTD/sodipodi-0.dtd"
   xmlns:inkscape="http://www.inkscape.org/namespaces/inkscape"
   width="10cm"
   height="10cm"
   viewBox="0 0 100 99.999997"
   version="1.1"
   id="svg1538"
   inkscape:version="1.0beta2 (unknown)"
   sodipodi:docname="sightingdb-logo3.svg">
  <defs
     id="defs1532">
    <inkscape:path-effect
       effect="powerclip"
       id="path-effect1622"
       is_visible="true"
       lpeversion="1"
       inverse="true"
       flatten="false"
       hide_clip="false"
       message="Use fill-rule evenodd on &lt;b&gt;fill and stroke&lt;/b&gt; dialog if no flatten result after convert clip to paths." />
    <inkscape:path-effect
       effect="powerclip"
       id="path-effect1606"
       is_visible="true"
       lpeversion="1"
       inverse="true"
       flatten="false"
       hide_clip="false"
       message="Use fill-rule evenodd on &lt;b&gt;fill and stroke&lt;/b&gt; dialog if no flatten result after convert clip to paths." />
    <clipPath
       id="clipPath2140"
       clipPathUnits="userSpaceOnUse">
      <rect
         inkscape:export-ydpi="300"
         inkscape:export-xdpi="300"
         y="-555.92383"
         x="1258.639"
         height="1214.4728"
         width="2033.3866"
         id="rect2142"
         style="opacity:1;fill:url(#linearGradient2144);fill-opacity:1;fill-rule:nonzero;stroke:none;stroke-width:0.821;stroke-linecap:round;stroke-linejoin:round;stroke-miterlimit:4;stroke-dasharray:none;stroke-dashoffset:0;stroke-opacity:1;paint-order:fill markers stroke" />
    </clipPath>
    <clipPath
       id="clipPath2146"
       clipPathUnits="userSpaceOnUse">
      <rect
         inkscape:export-ydpi="300"
         inkscape:export-xdpi="300"
         y="-555.92383"
         x="1258.639"
         height="1214.4728"
         width="2033.3866"
         id="rect2148"
         style="opacity:1;fill:url(#linearGradient2150);fill-opacity:1;fill-rule:nonzero;stroke:none;stroke-width:0.821;stroke-linecap:round;stroke-linejoin:round;stroke-miterlimit:4;stroke-dasharray:none;stroke-dashoffset:0;stroke-opacity:1;paint-order:fill markers stroke" />
    </clipPath>
    <clipPath
       clipPathUnits="userSpaceOnUse"
       id="clipPath1648">
      <rect
         style="fill:#f4d7d7;stroke-width:0.43647"
         id="rect1650"
         width="151.05939"
         height="180.49054"
         x="5.7249856"
         y="-36.36726"
         ry="0.0049699186" />
    </clipPath>
  </defs>
  <sodipodi:namedview
     id="base"
     pagecolor="#010061"
     bordercolor="#666666"
     borderopacity="1.0"
     inkscape:pageopacity="0"
     inkscape:pageshadow="2"
     inkscape:zoom="2.2489583"
     inkscape:cx="188.97638"
     inkscape:cy="188.97638"
     inkscape:document-units="mm"
     inkscape:current-layer="layer1"
     inkscape:document-rotation="0"
     showgrid="false"
     units="cm"
     inkscape:window-width="1916"
     inkscape:window-height="1041"
     inkscape:window-x="0"
     inkscape:window-y="18"
     inkscape:window-maximized="1" />
  <metadata
     id="metadata1535">
    <rdf:RDF>
      <cc:Work
         rdf:about="">
        <dc:format>image/svg+xml</dc:format>
        <dc:type
           rdf:resource="http://purl.org/dc/dcmitype/StillImage" />
        <dc:title></dc:title>
      </cc:Work>
    </rdf:RDF>
  </metadata>
  <g
     inkscape:label="Layer 1"
     inkscape:groupmode="layer"
     id="layer1">
    <path
       transform="matrix(2.8205045,0,0,2.8377827,-82.683948,-56.735356)"
       sodipodi:type="star"
       style="fill:#ffd42a;stroke-width:0.264583"
       id="path1652"
       sodipodi:sides="8"
       sodipodi:cx="46.190125"
       sodipodi:cy="34.812855"
       sodipodi:r1="5.7409792"
       sodipodi:r2="1.9822969"
       sodipodi:arg1="0.66020408"
       sodipodi:arg2="1.0529032"
       inkscape:flatsided="false"
       inkscape:rounded="0"
       inkscape:randomized="0"
       d="m 50.724735,38.333671 -3.553273,-1.79847 -0.264477,3.973701 -1.240833,-3.784254 -2.996844,2.622817 1.79847,-3.553273 -3.973701,-0.264477 3.784254,-1.240833 -2.622817,-2.996844 3.553273,1.79847 0.264477,-3.9737 1.240833,3.784253 2.996844,-2.622817 -1.79847,3.553273 3.973701,0.264477 -3.784254,1.240833 z" />
    <path
       sodipodi:type="star"
       style="fill:#ffd42a;stroke-width:0.264583"
       id="path1654"
       sodipodi:sides="8"
       sodipodi:cx="48.902901"
       sodipodi:cy="8.3673544"
       sodipodi:r1="1.0624112"
       sodipodi:r2="0.3668389"
       sodipodi:arg1="0.79271635"
       sodipodi:arg2="1.1854154"
       inkscape:flatsided="false"
       inkscape:rounded="0"
       inkscape:randomized="0"
       d="M 49.648621,9.1240701 49.0408,8.7072876 48.895126,9.4297371 48.760041,8.7052329 48.146185,9.1130748 48.562967,8.5052536 47.840518,8.3595795 48.565022,8.2244948 48.15718,7.6106387 48.765001,8.0274212 48.910676,7.3049717 49.04576,8.0294759 49.659616,7.621634 49.242834,8.2294552 49.965283,8.3751292 49.240779,8.510214 Z" />
    <path
       d="m 59.81667,10.862201 -0.607821,-0.416783 -0.145674,0.72245 -0.135085,-0.724504 -0.613856,0.407841 0.416782,-0.607821 -0.722449,-0.145674 0.724504,-0.1350847 -0.407842,-0.613856 0.607821,0.4167824 0.145674,-0.7224495 0.135085,0.7245042 0.613856,-0.4078418 -0.416782,0.6078212 0.722449,0.1456742 -0.724504,0.135085 z"
       inkscape:randomized="0"
       inkscape:rounded="0"
       inkscape:flatsided="false"
       sodipodi:arg2="1.1854154"
       sodipodi:arg1="0.79271635"
       sodipodi:r2="0.36683893"
       sodipodi:r1="1.0624112"
       sodipodi:cy="10.105485"
       sodipodi:cx="59.070948"
       sodipodi:sides="8"
       id="path1654-6"
       style="fill:#ffd42a;stroke-width:0.264583"
       sodipodi:type="star" />
    <path
       d="m 91.024094,15.906614 -0.607821,-0.416782 -0.145674,0.722449 -0.135085,-0.724504 -0.613856,0.407842 0.416782,-0.607821 -0.722449,-0.145674 0.724504,-0.135085 -0.407842,-0.613856 0.607822,0.416782 0.145674,-0.722449 0.135084,0.724504 0.613856,-0.407842 -0.416782,0.607821 0.722449,0.145674 -0.724504,0.135085 z"
       inkscape:randomized="0"
       inkscape:rounded="0"
       inkscape:flatsided="false"
       sodipodi:arg2="1.1854154"
       sodipodi:arg1="0.79271635"
       sodipodi:r2="0.36683893"
       sodipodi:r1="1.0624112"
       sodipodi:cy="15.149899"
       sodipodi:cx="90.278377"
       sodipodi:sides="8"
       id="path1654-2"
       style="fill:#ffd42a;stroke-width:0.264583"
       sodipodi:type="star" />
    <path
       d="m 82.51043,26.521421 -0.607821,-0.416782 -0.145674,0.722449 -0.135085,-0.724504 -0.613856,0.407842 0.416782,-0.607821 -0.722449,-0.145674 0.724504,-0.135085 -0.407842,-0.613856 0.607821,0.416782 0.145674,-0.722449 0.135085,0.724504 0.613856,-0.407842 -0.416782,0.607821 0.722449,0.145675 -0.724504,0.135084 z"
       inkscape:randomized="0"
       inkscape:rounded="0"
       inkscape:flatsided="false"
       sodipodi:arg2="1.1854154"
       sodipodi:arg1="0.79271635"
       sodipodi:r2="0.36683893"
       sodipodi:r1="1.0624112"
       sodipodi:cy="25.764706"
       sodipodi:cx="81.764709"
       sodipodi:sides="8"
       id="path1654-9"
       style="fill:#ffd42a;stroke-width:0.264583"
       sodipodi:type="star"
       transform="matrix(0.47910017,0,0,0.52584516,42.591223,12.21646)" />
    <path
       d="M 7.9658141,5.2206182 7.3579929,4.8038357 7.2123189,5.5262852 7.0772341,4.801781 6.463378,5.2096229 6.8801605,4.6018017 6.157711,4.4561276 6.8822152,4.3210428 6.4743733,3.7071868 7.0821945,4.1239692 7.2278686,3.4015197 7.3629534,4.1260239 7.9768094,3.7181821 7.560027,4.3260033 8.2824765,4.4716773 7.5579723,4.6067621 Z"
       inkscape:randomized="0"
       inkscape:rounded="0"
       inkscape:flatsided="false"
       sodipodi:arg2="1.1854154"
       sodipodi:arg1="0.79271635"
       sodipodi:r2="0.36683893"
       sodipodi:r1="1.0624112"
       sodipodi:cy="4.4639025"
       sodipodi:cx="7.2200939"
       sodipodi:sides="8"
       id="path1654-1"
       style="fill:#ffd42a;stroke-width:0.264583"
       sodipodi:type="star" />
    <path
       d="M 35.712597,8.4273605 35.104776,8.010578 34.959102,8.7330275 34.824017,8.0085233 34.210161,8.4163651 34.626944,7.808544 33.904494,7.6628699 34.628998,7.5277851 34.221157,6.9139291 34.828978,7.3307115 34.974652,6.608262 35.109737,7.3327662 35.723593,6.9249244 35.30681,7.5327455 36.02926,7.6784196 35.304756,7.8135044 Z"
       inkscape:randomized="0"
       inkscape:rounded="0"
       inkscape:flatsided="false"
       sodipodi:arg2="1.1854154"
       sodipodi:arg1="0.79271635"
       sodipodi:r2="0.36683893"
       sodipodi:r1="1.0624112"
       sodipodi:cy="7.6706448"
       sodipodi:cx="34.966877"
       sodipodi:sides="8"
       id="path1654-27"
       style="fill:#ffd42a;stroke-width:0.264583"
       sodipodi:type="star" />
    <path
       d="m 48.388073,17.309645 -0.607821,-0.416783 -0.145674,0.72245 -0.135085,-0.724505 -0.613856,0.407842 0.416783,-0.607821 -0.72245,-0.145674 0.724504,-0.135085 -0.407841,-0.613856 0.607821,0.416783 0.145674,-0.72245 0.135085,0.724504 0.613856,-0.407841 -0.416783,0.607821 0.72245,0.145674 -0.724504,0.135085 z"
       inkscape:randomized="0"
       inkscape:rounded="0"
       inkscape:flatsided="false"
       sodipodi:arg2="1.1854154"
       sodipodi:arg1="0.79271635"
       sodipodi:r2="0.36683893"
       sodipodi:r1="1.0624112"
       sodipodi:cy="16.552928"
       sodipodi:cx="47.642354"
       sodipodi:sides="8"
       id="path1654-0"
       style="fill:#ffd42a;stroke-width:0.264583"
       sodipodi:type="star" />
    <path
       transform="matrix(0.47910017,0,0,0.52584517,22.826514,7.7458716)"
       sodipodi:type="star"
       style="fill:#ffd42a;stroke-width:0.264583"
       id="path1654-9-6"
       sodipodi:sides="8"
       sodipodi:cx="81.764709"
       sodipodi:cy="25.764706"
       sodipodi:r1="1.0624112"
       sodipodi:r2="0.36683893"
       sodipodi:arg1="0.79271635"
       sodipodi:arg2="1.1854154"
       inkscape:flatsided="false"
       inkscape:rounded="0"
       inkscape:randomized="0"
       d="m 82.51043,26.521421 -0.607821,-0.416782 -0.145674,0.722449 -0.135085,-0.724504 -0.613856,0.407842 0.416782,-0.607821 -0.722449,-0.145674 0.724504,-0.135085 -0.407842,-0.613856 0.607821,0.416782 0.145674,-0.722449 0.135085,0.724504 0.613856,-0.407842 -0.416782,0.607821 0.722449,0.145675 -0.724504,0.135084 z" />
    <path
       transform="matrix(0.47910017,0,0,0.52584517,32.944161,9.2752834)"
       sodipodi:type="star"
       style="fill:#ffd42a;stroke-width:0.264583"
       id="path1654-9-0"
       sodipodi:sides="8"
       sodipodi:cx="81.764709"
       sodipodi:cy="25.764706"
       sodipodi:r1="1.0624112"
       sodipodi:r2="0.36683893"
       sodipodi:arg1="0.79271635"
       sodipodi:arg2="1.1854154"
       inkscape:flatsided="false"
       inkscape:rounded="0"
       inkscape:randomized="0"
       d="m 82.51043,26.521421 -0.607821,-0.416782 -0.145674,0.722449 -0.135085,-0.724504 -0.613856,0.407842 0.416782,-0.607821 -0.722449,-0.145674 0.724504,-0.135085 -0.407842,-0.613856 0.607821,0.416782 0.145674,-0.722449 0.135085,0.724504 0.613856,-0.407842 -0.416782,0.607821 0.722449,0.145675 -0.724504,0.135084 z" />
    <path
       transform="matrix(0.47910017,0,0,0.52584517,28.355926,4.451754)"
       sodipodi:type="star"
       style="fill:#ffd42a;stroke-width:0.264583"
       id="path1654-9-62"
       sodipodi:sides="8"
       sodipodi:cx="81.764709"
       sodipodi:cy="25.764706"
       sodipodi:r1="1.0624112"
       sodipodi:r2="0.36683893"
       sodipodi:arg1="0.79271635"
       sodipodi:arg2="1.1854154"
       inkscape:flatsided="false"
       inkscape:rounded="0"
       inkscape:randomized="0"
       d="m 82.51043,26.521421 -0.607821,-0.416782 -0.145674,0.722449 -0.135085,-0.724504 -0.613856,0.407842 0.416782,-0.607821 -0.722449,-0.145674 0.724504,-0.135085 -0.407842,-0.613856 0.607821,0.416782 0.145674,-0.722449 0.135085,0.724504 0.613856,-0.407842 -0.416782,0.607821 0.722449,0.145675 -0.724504,0.135084 z" />
    <path
       transform="matrix(0.47910017,0,0,0.52584517,39.885337,4.8046951)"
       sodipodi:type="star"
       style="fill:#ffd42a;stroke-width:0.264583"
       id="path1654-9-61"
       sodipodi:sides="8"
       sodipodi:cx="81.764709"
       sodipodi:cy="25.764706"
       sodipodi:r1="1.0624112"
       sodipodi:r2="0.36683893"
       sodipodi:arg1="0.79271635"
       sodipodi:arg2="1.1854154"
       inkscape:flatsided="false"
       inkscape:rounded="0"
       inkscape:randomized="0"
       d="m 82.51043,26.521421 -0.607821,-0.416782 -0.145674,0.722449 -0.135085,-0.724504 -0.613856,0.407842 0.416782,-0.607821 -0.722449,-0.145674 0.724504,-0.135085 -0.407842,-0.613856 0.607821,0.416782 0.145674,-0.722449 0.135085,0.724504 0.613856,-0.407842 -0.416782,0.607821 0.722449,0.145675 -0.724504,0.135084 z" />
    <path
       transform="matrix(0.47910017,0,0,0.52584517,52.708867,-6.9600107)"
       sodipodi:type="star"
       style="fill:#ffd42a;stroke-width:0.264583"
       id="path1654-9-8"
       sodipodi:sides="8"
       sodipodi:cx="81.764709"
       sodipodi:cy="25.764706"
       sodipodi:r1="1.0624112"
       sodipodi:r2="0.36683893"
       sodipodi:arg1="0.79271635"
       sodipodi:arg2="1.1854154"
       inkscape:flatsided="false"
       inkscape:rounded="0"
       inkscape:randomized="0"
       d="m 82.51043,26.521421 -0.607821,-0.416782 -0.145674,0.722449 -0.135085,-0.724504 -0.613856,0.407842 0.416782,-0.607821 -0.722449,-0.145674 0.724504,-0.135085 -0.407842,-0.613856 0.607821,0.416782 0.145674,-0.722449 0.135085,0.724504 0.613856,-0.407842 -0.416782,0.607821 0.722449,0.145675 -0.724504,0.135084 z" />
    <path
       transform="matrix(0.47910017,0,0,0.52584517,56.944161,-8.9600107)"
       sodipodi:type="star"
       style="fill:#ffd42a;stroke-width:0.264583"
       id="path1654-9-7"
       sodipodi:sides="8"
       sodipodi:cx="81.764709"
       sodipodi:cy="25.764706"
       sodipodi:r1="1.0624112"
       sodipodi:r2="0.36683893"
       sodipodi:arg1="0.79271635"
       sodipodi:arg2="1.1854154"
       inkscape:flatsided="false"
       inkscape:rounded="0"
       inkscape:randomized="0"
       d="m 82.51043,26.521421 -0.607821,-0.416782 -0.145674,0.722449 -0.135085,-0.724504 -0.613856,0.407842 0.416782,-0.607821 -0.722449,-0.145674 0.724504,-0.135085 -0.407842,-0.613856 0.607821,0.416782 0.145674,-0.722449 0.135085,0.724504 0.613856,-0.407842 -0.416782,0.607821 0.722449,0.145675 -0.724504,0.135084 z" />
    <path
       sodipodi:type="star"
       style="fill:#ffd42a;stroke-width:0.264583"
       id="path1654-0-9"
       sodipodi:sides="8"
       sodipodi:cx="53.411766"
       sodipodi:cy="22.823528"
       sodipodi:r1="1.0624112"
       sodipodi:r2="0.36683896"
       sodipodi:arg1="0.79271635"
       sodipodi:arg2="1.1854154"
       inkscape:flatsided="false"
       inkscape:rounded="0"
       inkscape:randomized="0"
       d="m 54.157486,23.580244 -0.607821,-0.416782 -0.145674,0.722449 -0.135085,-0.724504 -0.613856,0.407842 0.416783,-0.607821 -0.72245,-0.145675 0.724504,-0.135084 -0.407841,-0.613856 0.607821,0.416782 0.145674,-0.722449 0.135085,0.724504 0.613856,-0.407842 -0.416783,0.607821 0.72245,0.145674 -0.724504,0.135085 z"
       transform="matrix(1.683365,0,0,1.9836996,-47.686322,-40.636169)" />
    <path
       d="m 20.970076,80.61014 -0.607821,-0.416783 -0.145674,0.72245 -0.135085,-0.724504 -0.613856,0.407841 0.416782,-0.607821 -0.722449,-0.145674 0.724504,-0.135085 -0.407842,-0.613856 0.607821,0.416783 0.145675,-0.72245 0.135084,0.724505 0.613856,-0.407842 -0.416782,0.607821 0.722449,0.145674 -0.724504,0.135085 z"
       inkscape:randomized="0"
       inkscape:rounded="0"
       inkscape:flatsided="false"
       sodipodi:arg2="1.1854154"
       sodipodi:arg1="0.79271635"
       sodipodi:r2="0.36683893"
       sodipodi:r1="1.0624112"
       sodipodi:cy="79.853424"
       sodipodi:cx="20.224355"
       sodipodi:sides="8"
       id="path1654-3"
       style="fill:#ffd42a;stroke-width:0.264583"
       sodipodi:type="star" />
    <path
       sodipodi:type="star"
       style="fill:#ffd42a;stroke-width:0.264583"
       id="path1654-6-6"
       sodipodi:sides="8"
       sodipodi:cx="30.3924"
       sodipodi:cy="81.591561"
       sodipodi:r1="1.0624112"
       sodipodi:r2="0.36683896"
       sodipodi:arg1="0.79271635"
       sodipodi:arg2="1.1854154"
       inkscape:flatsided="false"
       inkscape:rounded="0"
       inkscape:randomized="0"
       d="m 31.138121,82.348276 -0.607821,-0.416782 -0.145674,0.722449 -0.135085,-0.724504 -0.613856,0.407842 0.416782,-0.607821 -0.722449,-0.145674 0.724504,-0.135085 -0.407842,-0.613856 0.607822,0.416782 0.145674,-0.722449 0.135084,0.724504 0.613856,-0.407842 -0.416782,0.607821 0.722449,0.145674 -0.724504,0.135085 z" />
    <path
       sodipodi:type="star"
       style="fill:#ffd42a;stroke-width:0.264583"
       id="path1654-2-7"
       sodipodi:sides="8"
       sodipodi:cx="61.599835"
       sodipodi:cy="86.635971"
       sodipodi:r1="1.0624112"
       sodipodi:r2="0.36683896"
       sodipodi:arg1="0.79271635"
       sodipodi:arg2="1.1854154"
       inkscape:flatsided="false"
       inkscape:rounded="0"
       inkscape:randomized="0"
       d="m 62.345555,87.392687 -0.607821,-0.416783 -0.145674,0.72245 -0.135085,-0.724504 -0.613856,0.407841 0.416782,-0.607821 -0.722449,-0.145674 0.724504,-0.135085 -0.407842,-0.613856 0.607821,0.416783 0.145674,-0.72245 0.135085,0.724504 0.613856,-0.407841 -0.416782,0.607821 0.722449,0.145674 -0.724504,0.135085 z" />
    <path
       sodipodi:type="star"
       style="fill:#ffd42a;stroke-width:0.264583"
       id="path1654-27-5"
       sodipodi:sides="8"
       sodipodi:cx="6.288331"
       sodipodi:cy="79.156716"
       sodipodi:r1="1.0624112"
       sodipodi:r2="0.36683896"
       sodipodi:arg1="0.79271635"
       sodipodi:arg2="1.1854154"
       inkscape:flatsided="false"
       inkscape:rounded="0"
       inkscape:randomized="0"
       d="M 7.0340514,79.913431 6.4262303,79.496649 6.2805562,80.219098 6.1454714,79.494594 5.5316153,79.902436 5.9483978,79.294615 5.2259483,79.148941 5.9504524,79.013856 5.5426106,78.4 l 0.6078212,0.416782 0.1456741,-0.722449 0.1350848,0.724504 0.613856,-0.407842 -0.4167824,0.607821 0.7224495,0.145674 -0.7245042,0.135085 z" />
    <path
       sodipodi:type="star"
       style="fill:#ffd42a;stroke-width:0.264583"
       id="path1654-0-3"
       sodipodi:sides="8"
       sodipodi:cx="18.963807"
       sodipodi:cy="88.039002"
       sodipodi:r1="1.0624112"
       sodipodi:r2="0.36683896"
       sodipodi:arg1="0.79271635"
       sodipodi:arg2="1.1854154"
       inkscape:flatsided="false"
       inkscape:rounded="0"
       inkscape:randomized="0"
       d="m 19.709527,88.795717 -0.607822,-0.416782 -0.145674,0.722449 -0.135084,-0.724504 -0.613857,0.407842 0.416783,-0.607821 -0.72245,-0.145674 0.724505,-0.135085 -0.407842,-0.613856 0.607821,0.416782 0.145674,-0.722449 0.135085,0.724504 0.613856,-0.407842 -0.416783,0.607821 0.72245,0.145674 -0.724504,0.135085 z" />
    <path
       d="m 82.51043,26.521421 -0.607821,-0.416782 -0.145674,0.722449 -0.135085,-0.724504 -0.613856,0.407842 0.416782,-0.607821 -0.722449,-0.145674 0.724504,-0.135085 -0.407842,-0.613856 0.607821,0.416782 0.145674,-0.722449 0.135085,0.724504 0.613856,-0.407842 -0.416782,0.607821 0.722449,0.145675 -0.724504,0.135084 z"
       inkscape:randomized="0"
       inkscape:rounded="0"
       inkscape:flatsided="false"
       sodipodi:arg2="1.1854154"
       sodipodi:arg1="0.79271635"
       sodipodi:r2="0.36683893"
       sodipodi:r1="1.0624112"
       sodipodi:cy="25.764706"
       sodipodi:cx="81.764709"
       sodipodi:sides="8"
       id="path1654-9-6-5"
       style="fill:#ffd42a;stroke-width:0.264583"
       sodipodi:type="star"
       transform="matrix(0.47910017,0,0,0.52584517,-5.8520321,79.231943)" />
    <path
       d="m 82.51043,26.521421 -0.607821,-0.416782 -0.145674,0.722449 -0.135085,-0.724504 -0.613856,0.407842 0.416782,-0.607821 -0.722449,-0.145674 0.724504,-0.135085 -0.407842,-0.613856 0.607821,0.416782 0.145674,-0.722449 0.135085,0.724504 0.613856,-0.407842 -0.416782,0.607821 0.722449,0.145675 -0.724504,0.135084 z"
       inkscape:randomized="0"
       inkscape:rounded="0"
       inkscape:flatsided="false"
       sodipodi:arg2="1.1854154"
       sodipodi:arg1="0.79271635"
       sodipodi:r2="0.36683893"
       sodipodi:r1="1.0624112"
       sodipodi:cy="25.764706"
       sodipodi:cx="81.764709"
       sodipodi:sides="8"
       id="path1654-9-0-6"
       style="fill:#ffd42a;stroke-width:0.264583"
       sodipodi:type="star"
       transform="matrix(0.47910017,0,0,0.52584517,4.2656139,80.761355)" />
    <path
       d="m 82.51043,26.521421 -0.607821,-0.416782 -0.145674,0.722449 -0.135085,-0.724504 -0.613856,0.407842 0.416782,-0.607821 -0.722449,-0.145674 0.724504,-0.135085 -0.407842,-0.613856 0.607821,0.416782 0.145674,-0.722449 0.135085,0.724504 0.613856,-0.407842 -0.416782,0.607821 0.722449,0.145675 -0.724504,0.135084 z"
       inkscape:randomized="0"
       inkscape:rounded="0"
       inkscape:flatsided="false"
       sodipodi:arg2="1.1854154"
       sodipodi:arg1="0.79271635"
       sodipodi:r2="0.36683893"
       sodipodi:r1="1.0624112"
       sodipodi:cy="25.764706"
       sodipodi:cx="81.764709"
       sodipodi:sides="8"
       id="path1654-9-62-2"
       style="fill:#ffd42a;stroke-width:0.264583"
       sodipodi:type="star"
       transform="matrix(0.47910017,0,0,0.52584517,-0.32262108,75.937826)" />
    <path
       d="m 82.51043,26.521421 -0.607821,-0.416782 -0.145674,0.722449 -0.135085,-0.724504 -0.613856,0.407842 0.416782,-0.607821 -0.722449,-0.145674 0.724504,-0.135085 -0.407842,-0.613856 0.607821,0.416782 0.145674,-0.722449 0.135085,0.724504 0.613856,-0.407842 -0.416782,0.607821 0.722449,0.145675 -0.724504,0.135084 z"
       inkscape:randomized="0"
       inkscape:rounded="0"
       inkscape:flatsided="false"
       sodipodi:arg2="1.1854154"
       sodipodi:arg1="0.79271635"
       sodipodi:r2="0.36683893"
       sodipodi:r1="1.0624112"
       sodipodi:cy="25.764706"
       sodipodi:cx="81.764709"
       sodipodi:sides="8"
       id="path1654-9-61-9"
       style="fill:#ffd42a;stroke-width:0.264583"
       sodipodi:type="star"
       transform="matrix(0.47910017,0,0,0.52584517,11.206791,76.290767)" />
    <path
       transform="matrix(1.683365,0,0,1.9836996,-76.364868,30.849904)"
       d="m 54.157486,23.580244 -0.607821,-0.416782 -0.145674,0.722449 -0.135085,-0.724504 -0.613856,0.407842 0.416783,-0.607821 -0.72245,-0.145675 0.724504,-0.135084 -0.407841,-0.613856 0.607821,0.416782 0.145674,-0.722449 0.135085,0.724504 0.613856,-0.407842 -0.416783,0.607821 0.72245,0.145674 -0.724504,0.135085 z"
       inkscape:randomized="0"
       inkscape:rounded="0"
       inkscape:flatsided="false"
       sodipodi:arg2="1.1854154"
       sodipodi:arg1="0.79271635"
       sodipodi:r2="0.36683896"
       sodipodi:r1="1.0624112"
       sodipodi:cy="22.823528"
       sodipodi:cx="53.411766"
       sodipodi:sides="8"
       id="path1654-0-9-1"
       style="fill:#ffd42a;stroke-width:0.264583"
       sodipodi:type="star" />
    <path
       d="m 87.448952,57.091341 -0.607821,-0.416783 -0.145674,0.72245 -0.135085,-0.724504 -0.613856,0.407842 0.416783,-0.607822 -0.72245,-0.145674 0.724504,-0.135084 -0.407842,-0.613856 0.607822,0.416782 0.145674,-0.722449 0.135084,0.724504 0.613857,-0.407842 -0.416783,0.607821 0.72245,0.145674 -0.724505,0.135085 z"
       inkscape:randomized="0"
       inkscape:rounded="0"
       inkscape:flatsided="false"
       sodipodi:arg2="1.1854154"
       sodipodi:arg1="0.79271635"
       sodipodi:r2="0.36683893"
       sodipodi:r1="1.0624112"
       sodipodi:cy="56.334626"
       sodipodi:cx="86.703235"
       sodipodi:sides="8"
       id="path1654-270"
       style="fill:#ffd42a;stroke-width:0.264583"
       sodipodi:type="star" />
    <path
       sodipodi:type="star"
       style="fill:#ffd42a;stroke-width:0.264583"
       id="path1654-6-9"
       sodipodi:sides="8"
       sodipodi:cx="62.095382"
       sodipodi:cy="63.854575"
       sodipodi:r1="1.0624112"
       sodipodi:r2="0.36683896"
       sodipodi:arg1="0.79271635"
       sodipodi:arg2="1.1854154"
       inkscape:flatsided="false"
       inkscape:rounded="0"
       inkscape:randomized="0"
       d="m 62.841103,64.611292 -0.607821,-0.416783 -0.145674,0.72245 -0.135085,-0.724504 -0.613856,0.407841 0.416782,-0.607821 -0.722449,-0.145674 0.724504,-0.135085 -0.407842,-0.613856 0.607821,0.416783 0.145675,-0.72245 0.135084,0.724505 0.613856,-0.407842 -0.416782,0.607821 0.722449,0.145674 -0.724504,0.135085 z" />
    <path
       sodipodi:type="star"
       style="fill:#ffd42a;stroke-width:0.264583"
       id="path1654-2-3"
       sodipodi:sides="8"
       sodipodi:cx="93.30281"
       sodipodi:cy="68.898989"
       sodipodi:r1="1.0624112"
       sodipodi:r2="0.36683896"
       sodipodi:arg1="0.79271635"
       sodipodi:arg2="1.1854154"
       inkscape:flatsided="false"
       inkscape:rounded="0"
       inkscape:randomized="0"
       d="m 94.048531,69.655703 -0.607821,-0.416783 -0.145674,0.72245 -0.135085,-0.724505 -0.613856,0.407842 0.416782,-0.607821 -0.722449,-0.145674 0.724504,-0.135085 -0.407842,-0.613856 0.607821,0.416783 0.145675,-0.72245 0.135084,0.724504 0.613856,-0.407842 -0.416782,0.607822 0.722449,0.145674 -0.724504,0.135084 z" />
    <path
       sodipodi:type="star"
       style="fill:#ffd42a;stroke-width:0.264583"
       id="path1654-27-6"
       sodipodi:sides="8"
       sodipodi:cx="40.523242"
       sodipodi:cy="71.560719"
       sodipodi:r1="1.0624112"
       sodipodi:r2="0.36683896"
       sodipodi:arg1="0.79271635"
       sodipodi:arg2="1.1854154"
       inkscape:flatsided="false"
       inkscape:rounded="0"
       inkscape:randomized="0"
       d="m 41.268963,72.317438 -0.607821,-0.416782 -0.145674,0.722449 -0.135085,-0.724504 -0.613856,0.407842 0.416783,-0.607821 -0.72245,-0.145675 0.724504,-0.135084 -0.407841,-0.613856 0.607821,0.416782 0.145674,-0.722449 0.135085,0.724504 0.613856,-0.407842 -0.416783,0.607821 0.72245,0.145674 -0.724504,0.135085 z" />
    <path
       sodipodi:type="star"
       style="fill:#ffd42a;stroke-width:0.264583"
       id="path1654-0-0"
       sodipodi:sides="8"
       sodipodi:cx="85.442687"
       sodipodi:cy="64.5202"
       sodipodi:r1="1.0624112"
       sodipodi:r2="0.36683896"
       sodipodi:arg1="0.79271635"
       sodipodi:arg2="1.1854154"
       inkscape:flatsided="false"
       inkscape:rounded="0"
       inkscape:randomized="0"
       d="m 86.188408,65.276918 -0.607821,-0.416782 -0.145674,0.722449 -0.135085,-0.724504 -0.613856,0.407842 0.416783,-0.607821 -0.72245,-0.145674 0.724504,-0.135085 -0.407841,-0.613856 0.607821,0.416782 0.145674,-0.722449 0.135085,0.724504 0.613856,-0.407842 -0.416783,0.607821 0.72245,0.145674 -0.724504,0.135085 z" />
    <path
       d="m 82.51043,26.521421 -0.607821,-0.416782 -0.145674,0.722449 -0.135085,-0.724504 -0.613856,0.407842 0.416782,-0.607821 -0.722449,-0.145674 0.724504,-0.135085 -0.407842,-0.613856 0.607821,0.416782 0.145674,-0.722449 0.135085,0.724504 0.613856,-0.407842 -0.416782,0.607821 0.722449,0.145675 -0.724504,0.135084 z"
       inkscape:randomized="0"
       inkscape:rounded="0"
       inkscape:flatsided="false"
       sodipodi:arg2="1.1854154"
       sodipodi:arg1="0.79271635"
       sodipodi:r2="0.36683893"
       sodipodi:r1="1.0624112"
       sodipodi:cy="25.764706"
       sodipodi:cx="81.764709"
       sodipodi:sides="8"
       id="path1654-9-6-6"
       style="fill:#ffd42a;stroke-width:0.264583"
       sodipodi:type="star"
       transform="matrix(0.47910017,0,0,0.52584517,25.850946,61.494962)" />
    <path
       d="m 82.51043,26.521421 -0.607821,-0.416782 -0.145674,0.722449 -0.135085,-0.724504 -0.613856,0.407842 0.416782,-0.607821 -0.722449,-0.145674 0.724504,-0.135085 -0.407842,-0.613856 0.607821,0.416782 0.145674,-0.722449 0.135085,0.724504 0.613856,-0.407842 -0.416782,0.607821 0.722449,0.145675 -0.724504,0.135084 z"
       inkscape:randomized="0"
       inkscape:rounded="0"
       inkscape:flatsided="false"
       sodipodi:arg2="1.1854154"
       sodipodi:arg1="0.79271635"
       sodipodi:r2="0.36683893"
       sodipodi:r1="1.0624112"
       sodipodi:cy="25.764706"
       sodipodi:cx="81.764709"
       sodipodi:sides="8"
       id="path1654-9-0-2"
       style="fill:#ffd42a;stroke-width:0.264583"
       sodipodi:type="star"
       transform="matrix(0.47910017,0,0,0.52584517,35.968592,63.024374)" />
    <path
       d="m 82.51043,26.521421 -0.607821,-0.416782 -0.145674,0.722449 -0.135085,-0.724504 -0.613856,0.407842 0.416782,-0.607821 -0.722449,-0.145674 0.724504,-0.135085 -0.407842,-0.613856 0.607821,0.416782 0.145674,-0.722449 0.135085,0.724504 0.613856,-0.407842 -0.416782,0.607821 0.722449,0.145675 -0.724504,0.135084 z"
       inkscape:randomized="0"
       inkscape:rounded="0"
       inkscape:flatsided="false"
       sodipodi:arg2="1.1854154"
       sodipodi:arg1="0.79271635"
       sodipodi:r2="0.36683893"
       sodipodi:r1="1.0624112"
       sodipodi:cy="25.764706"
       sodipodi:cx="81.764709"
       sodipodi:sides="8"
       id="path1654-9-62-6"
       style="fill:#ffd42a;stroke-width:0.264583"
       sodipodi:type="star"
       transform="matrix(0.47910017,0,0,0.52584517,31.380358,58.200845)" />
    <path
       d="m 82.51043,26.521421 -0.607821,-0.416782 -0.145674,0.722449 -0.135085,-0.724504 -0.613856,0.407842 0.416782,-0.607821 -0.722449,-0.145674 0.724504,-0.135085 -0.407842,-0.613856 0.607821,0.416782 0.145674,-0.722449 0.135085,0.724504 0.613856,-0.407842 -0.416782,0.607821 0.722449,0.145675 -0.724504,0.135084 z"
       inkscape:randomized="0"
       inkscape:rounded="0"
       inkscape:flatsided="false"
       sodipodi:arg2="1.1854154"
       sodipodi:arg1="0.79271635"
       sodipodi:r2="0.36683893"
       sodipodi:r1="1.0624112"
       sodipodi:cy="25.764706"
       sodipodi:cx="81.764709"
       sodipodi:sides="8"
       id="path1654-9-61-1"
       style="fill:#ffd42a;stroke-width:0.264583"
       sodipodi:type="star"
       transform="matrix(0.47910017,0,0,0.52584517,42.909769,58.553786)" />
    <path
       transform="matrix(1.683365,0,0,1.9836996,0.83333557,44.896865)"
       d="m 54.157486,23.580244 -0.607821,-0.416782 -0.145674,0.722449 -0.135085,-0.724504 -0.613856,0.407842 0.416783,-0.607821 -0.72245,-0.145675 0.724504,-0.135084 -0.407841,-0.613856 0.607821,0.416782 0.145674,-0.722449 0.135085,0.724504 0.613856,-0.407842 -0.416783,0.607821 0.72245,0.145674 -0.724504,0.135085 z"
       inkscape:randomized="0"
       inkscape:rounded="0"
       inkscape:flatsided="false"
       sodipodi:arg2="1.1854154"
       sodipodi:arg1="0.79271635"
       sodipodi:r2="0.36683896"
       sodipodi:r1="1.0624112"
       sodipodi:cy="22.823528"
       sodipodi:cx="53.411766"
       sodipodi:sides="8"
       id="path1654-0-9-8"
       style="fill:#ffd42a;stroke-width:0.264583"
       sodipodi:type="star" />
    <path
       d="m 21.350735,43.854559 -0.607821,-0.416783 -0.145674,0.72245 -0.135085,-0.724504 -0.613856,0.407842 0.416783,-0.607822 -0.72245,-0.145674 0.724504,-0.135084 -0.407842,-0.613857 0.607822,0.416783 0.145674,-0.72245 0.135084,0.724505 0.613856,-0.407842 -0.416782,0.607821 0.72245,0.145674 -0.724505,0.135085 z"
       inkscape:randomized="0"
       inkscape:rounded="0"
       inkscape:flatsided="false"
       sodipodi:arg2="1.1854154"
       sodipodi:arg1="0.79271635"
       sodipodi:r2="0.36683893"
       sodipodi:r1="1.0624112"
       sodipodi:cy="43.097845"
       sodipodi:cx="20.605015"
       sodipodi:sides="8"
       id="path1654-7"
       style="fill:#ffd42a;stroke-width:0.264583"
       sodipodi:type="star" />
    <path
       sodipodi:type="star"
       style="fill:#ffd42a;stroke-width:0.264583"
       id="path1654-6-92"
       sodipodi:sides="8"
       sodipodi:cx="24.332849"
       sodipodi:cy="66.839617"
       sodipodi:r1="1.0624112"
       sodipodi:r2="0.36683896"
       sodipodi:arg1="0.79271635"
       sodipodi:arg2="1.1854154"
       inkscape:flatsided="false"
       inkscape:rounded="0"
       inkscape:randomized="0"
       d="m 25.07857,67.596331 -0.607821,-0.416783 -0.145674,0.72245 -0.135085,-0.724505 -0.613856,0.407842 0.416782,-0.607821 -0.722449,-0.145674 0.724504,-0.135085 -0.407842,-0.613856 0.607821,0.416783 0.145674,-0.72245 0.135085,0.724504 0.613856,-0.407842 -0.416782,0.607822 0.722449,0.145674 -0.724504,0.135085 z" />
    <path
       sodipodi:type="star"
       style="fill:#ffd42a;stroke-width:0.264583"
       id="path1654-2-0"
       sodipodi:sides="8"
       sodipodi:cx="93.664041"
       sodipodi:cy="42.982649"
       sodipodi:r1="1.0624112"
       sodipodi:r2="0.36683896"
       sodipodi:arg1="0.79271635"
       sodipodi:arg2="1.1854154"
       inkscape:flatsided="false"
       inkscape:rounded="0"
       inkscape:randomized="0"
       d="m 94.40976,43.739366 -0.607821,-0.416782 -0.145674,0.722449 -0.135085,-0.724504 -0.613856,0.407842 0.416782,-0.607821 -0.722449,-0.145674 0.724504,-0.135085 -0.407842,-0.613856 0.607821,0.416782 0.145674,-0.722449 0.135085,0.724504 0.613856,-0.407842 -0.416782,0.607822 0.722449,0.145674 -0.724504,0.135084 z" />
    <path
       sodipodi:type="star"
       style="fill:#ffd42a;stroke-width:0.264583"
       id="path1654-27-2"
       sodipodi:sides="8"
       sodipodi:cx="6.6689917"
       sodipodi:cy="42.40114"
       sodipodi:r1="1.0624112"
       sodipodi:r2="0.36683896"
       sodipodi:arg1="0.79271635"
       sodipodi:arg2="1.1854154"
       inkscape:flatsided="false"
       inkscape:rounded="0"
       inkscape:randomized="0"
       d="M 7.414712,43.157854 6.8068908,42.741072 6.6612167,43.463521 6.5261319,42.739017 5.9122759,43.146859 6.3290583,42.539038 5.6066088,42.393363 6.331113,42.258279 5.9232712,41.644423 l 0.6078211,0.416782 0.1456741,-0.722449 0.1350848,0.724504 0.6138561,-0.407842 -0.4167825,0.607821 0.7224495,0.145674 -0.7245041,0.135085 z" />
    <path
       sodipodi:type="star"
       style="fill:#ffd42a;stroke-width:0.264583"
       id="path1654-0-37"
       sodipodi:sides="8"
       sodipodi:cx="19.344468"
       sodipodi:cy="51.283422"
       sodipodi:r1="1.0624112"
       sodipodi:r2="0.36683896"
       sodipodi:arg1="0.79271635"
       sodipodi:arg2="1.1854154"
       inkscape:flatsided="false"
       inkscape:rounded="0"
       inkscape:randomized="0"
       d="m 20.090188,52.040136 -0.607822,-0.416782 -0.145674,0.722449 -0.135084,-0.724504 -0.613857,0.407842 0.416783,-0.607821 -0.72245,-0.145674 0.724505,-0.135085 -0.407842,-0.613856 0.607821,0.416782 0.145674,-0.722449 0.135085,0.724504 0.613856,-0.407842 -0.416783,0.607821 0.72245,0.145674 -0.724504,0.135085 z" />
    <path
       d="m 82.51043,26.521421 -0.607821,-0.416782 -0.145674,0.722449 -0.135085,-0.724504 -0.613856,0.407842 0.416782,-0.607821 -0.722449,-0.145674 0.724504,-0.135085 -0.407842,-0.613856 0.607821,0.416782 0.145674,-0.722449 0.135085,0.724504 0.613856,-0.407842 -0.416782,0.607821 0.722449,0.145675 -0.724504,0.135084 z"
       inkscape:randomized="0"
       inkscape:rounded="0"
       inkscape:flatsided="false"
       sodipodi:arg2="1.1854154"
       sodipodi:arg1="0.79271635"
       sodipodi:r2="0.36683893"
       sodipodi:r1="1.0624112"
       sodipodi:cy="25.764706"
       sodipodi:cx="81.764709"
       sodipodi:sides="8"
       id="path1654-9-6-59"
       style="fill:#ffd42a;stroke-width:0.264583"
       sodipodi:type="star"
       transform="matrix(0.47910017,0,0,0.52584517,26.212181,35.578623)" />
    <path
       d="m 82.51043,26.521421 -0.607821,-0.416782 -0.145674,0.722449 -0.135085,-0.724504 -0.613856,0.407842 0.416782,-0.607821 -0.722449,-0.145674 0.724504,-0.135085 -0.407842,-0.613856 0.607821,0.416782 0.145674,-0.722449 0.135085,0.724504 0.613856,-0.407842 -0.416782,0.607821 0.722449,0.145675 -0.724504,0.135084 z"
       inkscape:randomized="0"
       inkscape:rounded="0"
       inkscape:flatsided="false"
       sodipodi:arg2="1.1854154"
       sodipodi:arg1="0.79271635"
       sodipodi:r2="0.36683893"
       sodipodi:r1="1.0624112"
       sodipodi:cy="25.764706"
       sodipodi:cx="81.764709"
       sodipodi:sides="8"
       id="path1654-9-0-22"
       style="fill:#ffd42a;stroke-width:0.264583"
       sodipodi:type="star"
       transform="matrix(0.47910017,0,0,0.52584517,36.329827,37.108035)" />
    <path
       d="m 82.51043,26.521421 -0.607821,-0.416782 -0.145674,0.722449 -0.135085,-0.724504 -0.613856,0.407842 0.416782,-0.607821 -0.722449,-0.145674 0.724504,-0.135085 -0.407842,-0.613856 0.607821,0.416782 0.145674,-0.722449 0.135085,0.724504 0.613856,-0.407842 -0.416782,0.607821 0.722449,0.145675 -0.724504,0.135084 z"
       inkscape:randomized="0"
       inkscape:rounded="0"
       inkscape:flatsided="false"
       sodipodi:arg2="1.1854154"
       sodipodi:arg1="0.79271635"
       sodipodi:r2="0.36683893"
       sodipodi:r1="1.0624112"
       sodipodi:cy="25.764706"
       sodipodi:cx="81.764709"
       sodipodi:sides="8"
       id="path1654-9-62-8"
       style="fill:#ffd42a;stroke-width:0.264583"
       sodipodi:type="star"
       transform="matrix(0.47910017,0,0,0.52584517,31.741592,32.284506)" />
    <path
       d="m 82.51043,26.521421 -0.607821,-0.416782 -0.145674,0.722449 -0.135085,-0.724504 -0.613856,0.407842 0.416782,-0.607821 -0.722449,-0.145674 0.724504,-0.135085 -0.407842,-0.613856 0.607821,0.416782 0.145674,-0.722449 0.135085,0.724504 0.613856,-0.407842 -0.416782,0.607821 0.722449,0.145675 -0.724504,0.135084 z"
       inkscape:randomized="0"
       inkscape:rounded="0"
       inkscape:flatsided="false"
       sodipodi:arg2="1.1854154"
       sodipodi:arg1="0.79271635"
       sodipodi:r2="0.36683893"
       sodipodi:r1="1.0624112"
       sodipodi:cy="25.764706"
       sodipodi:cx="81.764709"
       sodipodi:sides="8"
       id="path1654-9-61-97"
       style="fill:#ffd42a;stroke-width:0.264583"
       sodipodi:type="star"
       transform="matrix(0.47910017,0,0,0.52584517,43.271004,32.637447)" />
    <path
       transform="matrix(1.683365,0,0,1.9836996,-75.984206,-5.9056759)"
       d="m 54.157486,23.580244 -0.607821,-0.416782 -0.145674,0.722449 -0.135085,-0.724504 -0.613856,0.407842 0.416783,-0.607821 -0.72245,-0.145675 0.724504,-0.135084 -0.407841,-0.613856 0.607821,0.416782 0.145674,-0.722449 0.135085,0.724504 0.613856,-0.407842 -0.416783,0.607821 0.72245,0.145674 -0.724504,0.135085 z"
       inkscape:randomized="0"
       inkscape:rounded="0"
       inkscape:flatsided="false"
       sodipodi:arg2="1.1854154"
       sodipodi:arg1="0.79271635"
       sodipodi:r2="0.36683896"
       sodipodi:r1="1.0624112"
       sodipodi:cy="22.823528"
       sodipodi:cx="53.411766"
       sodipodi:sides="8"
       id="path1654-0-9-3"
       style="fill:#ffd42a;stroke-width:0.264583"
       sodipodi:type="star" />
    <path
       sodipodi:type="star"
       style="fill:#ffd42a;stroke-width:0.264583"
       id="path1654-7-5"
       sodipodi:sides="8"
       sodipodi:cx="26.211388"
       sodipodi:cy="20.006298"
       sodipodi:r1="1.0624112"
       sodipodi:r2="0.36683896"
       sodipodi:arg1="0.79271635"
       sodipodi:arg2="1.1854154"
       inkscape:flatsided="false"
       inkscape:rounded="0"
       inkscape:randomized="0"
       d="m 26.957108,20.763014 -0.607821,-0.416783 -0.145674,0.72245 -0.135085,-0.724504 -0.613856,0.407841 0.416782,-0.607821 -0.722449,-0.145674 0.724504,-0.135085 -0.407842,-0.613856 0.607821,0.416783 0.145674,-0.72245 0.135085,0.724504 0.613856,-0.407841 -0.416782,0.607821 0.722449,0.145674 -0.724504,0.135085 z" />
    <path
       d="m 13.021085,20.066309 -0.607821,-0.416783 -0.145674,0.72245 -0.135085,-0.724504 -0.613856,0.407842 0.416783,-0.607822 -0.72245,-0.145674 0.724504,-0.135084 -0.407842,-0.613856 0.607822,0.416782 0.145674,-0.72245 0.135085,0.724505 0.613856,-0.407842 -0.416783,0.607821 0.72245,0.145674 -0.724505,0.135085 z"
       inkscape:randomized="0"
       inkscape:rounded="0"
       inkscape:flatsided="false"
       sodipodi:arg2="1.1854154"
       sodipodi:arg1="0.79271635"
       sodipodi:r2="0.36683896"
       sodipodi:r1="1.0624112"
       sodipodi:cy="19.309593"
       sodipodi:cx="12.275365"
       sodipodi:sides="8"
       id="path1654-27-2-0"
       style="fill:#ffd42a;stroke-width:0.264583"
       sodipodi:type="star" />
    <path
       d="m 25.696562,28.948591 -0.607821,-0.416782 -0.145674,0.722449 -0.135085,-0.724504 -0.613856,0.407842 0.416783,-0.607821 -0.72245,-0.145674 0.724504,-0.135085 -0.407841,-0.613856 0.607821,0.416782 0.145674,-0.722449 0.135085,0.724504 0.613856,-0.407842 -0.416783,0.607821 0.72245,0.145674 -0.724504,0.135085 z"
       inkscape:randomized="0"
       inkscape:rounded="0"
       inkscape:flatsided="false"
       sodipodi:arg2="1.1854154"
       sodipodi:arg1="0.79271635"
       sodipodi:r2="0.36683896"
       sodipodi:r1="1.0624112"
       sodipodi:cy="28.191875"
       sodipodi:cx="24.950841"
       sodipodi:sides="8"
       id="path1654-0-37-3"
       style="fill:#ffd42a;stroke-width:0.264583"
       sodipodi:type="star" />
    <path
       sodipodi:type="star"
       style="fill:#ffd42a;stroke-width:0.264583"
       id="path1654-0-9-3-6"
       sodipodi:sides="8"
       sodipodi:cx="53.411766"
       sodipodi:cy="22.823528"
       sodipodi:r1="1.0624112"
       sodipodi:r2="0.36683896"
       sodipodi:arg1="0.79271635"
       sodipodi:arg2="1.1854154"
       inkscape:flatsided="false"
       inkscape:rounded="0"
       inkscape:randomized="0"
       d="m 54.157486,23.580244 -0.607821,-0.416782 -0.145674,0.722449 -0.135085,-0.724504 -0.613856,0.407842 0.416783,-0.607821 -0.72245,-0.145675 0.724504,-0.135084 -0.407841,-0.613856 0.607821,0.416782 0.145674,-0.722449 0.135085,0.724504 0.613856,-0.407842 -0.416783,0.607821 0.72245,0.145674 -0.724504,0.135085 z"
       transform="matrix(1.683365,0,0,1.9836996,-70.377833,-28.997221)" />
  </g>
</svg>
